<svg viewBox="0 0 760 500" xmlns="http://www.w3.org/2000/svg" font-family="ui-sans-serif, system-ui, sans-serif" role="img">
  <title>What the model actually sees</title>
  <desc>A cropped patch is just a coarse 3D grid of intensity numbers; the pancreas is faintly brighter than its surroundings and a small tumor is only a few slightly-darker voxels inside it.</desc>
  <rect x="-50" y="-50" width="200%" height="200%" fill="#0b0f17"/>
  <text x="380.0" y="34" text-anchor="middle" font-size="16" font-weight="700" fill="#f1f5f9">What the model actually sees (one slice of a patch)</text>
  <text x="380.0" y="55" text-anchor="middle" font-size="11.5" fill="#94a3b8">not a picture, a grid of intensity numbers; each cell is one 1.5mm voxel</text>
  <text x="380.0" y="76" text-anchor="middle" font-size="11.5" fill="#94a3b8">blue = pancreas (0.50), red-edged = tumor (0.41), dark = other tissue (~0.38)</text>
  <rect x="70" y="108" width="44" height="44" rx="3" fill="#111826" stroke="#26303f" stroke-width="1"/>
  <text x="92.0" y="134.0" text-anchor="middle" font-size="11" fill="#cbd5e1">0.36</text>
  <rect x="116" y="108" width="44" height="44" rx="3" fill="#111826" stroke="#26303f" stroke-width="1"/>
  <text x="138.0" y="134.0" text-anchor="middle" font-size="11" fill="#cbd5e1">0.38</text>
  <rect x="162" y="108" width="44" height="44" rx="3" fill="#111826" stroke="#26303f" stroke-width="1"/>
  <text x="184.0" y="134.0" text-anchor="middle" font-size="11" fill="#cbd5e1">0.40</text>
  <rect x="208" y="108" width="44" height="44" rx="3" fill="#111826" stroke="#26303f" stroke-width="1"/>
  <text x="230.0" y="134.0" text-anchor="middle" font-size="11" fill="#cbd5e1">0.37</text>
  <rect x="254" y="108" width="44" height="44" rx="3" fill="#111826" stroke="#26303f" stroke-width="1"/>
  <text x="276.0" y="134.0" text-anchor="middle" font-size="11" fill="#cbd5e1">0.39</text>
  <rect x="300" y="108" width="44" height="44" rx="3" fill="#111826" stroke="#26303f" stroke-width="1"/>
  <text x="322.0" y="134.0" text-anchor="middle" font-size="11" fill="#cbd5e1">0.36</text>
  <rect x="346" y="108" width="44" height="44" rx="3" fill="#111826" stroke="#26303f" stroke-width="1"/>
  <text x="368.0" y="134.0" text-anchor="middle" font-size="11" fill="#cbd5e1">0.38</text>
  <rect x="392" y="108" width="44" height="44" rx="3" fill="#111826" stroke="#26303f" stroke-width="1"/>
  <text x="414.0" y="134.0" text-anchor="middle" font-size="11" fill="#cbd5e1">0.40</text>
  <rect x="438" y="108" width="44" height="44" rx="3" fill="#111826" stroke="#26303f" stroke-width="1"/>
  <text x="460.0" y="134.0" text-anchor="middle" font-size="11" fill="#cbd5e1">0.37</text>
  <rect x="484" y="108" width="44" height="44" rx="3" fill="#111826" stroke="#26303f" stroke-width="1"/>
  <text x="506.0" y="134.0" text-anchor="middle" font-size="11" fill="#cbd5e1">0.39</text>
  <rect x="530" y="108" width="44" height="44" rx="3" fill="#111826" stroke="#26303f" stroke-width="1"/>
  <text x="552.0" y="134.0" text-anchor="middle" font-size="11" fill="#cbd5e1">0.36</text>
  <rect x="70" y="154" width="44" height="44" rx="3" fill="#111826" stroke="#26303f" stroke-width="1"/>
  <text x="92.0" y="180.0" text-anchor="middle" font-size="11" fill="#cbd5e1">0.39</text>
  <rect x="116" y="154" width="44" height="44" rx="3" fill="#111826" stroke="#26303f" stroke-width="1"/>
  <text x="138.0" y="180.0" text-anchor="middle" font-size="11" fill="#cbd5e1">0.36</text>
  <rect x="162" y="154" width="44" height="44" rx="3" fill="#111826" stroke="#26303f" stroke-width="1"/>
  <text x="184.0" y="180.0" text-anchor="middle" font-size="11" fill="#cbd5e1">0.38</text>
  <rect x="208" y="154" width="44" height="44" rx="3" fill="#111826" stroke="#26303f" stroke-width="1"/>
  <text x="230.0" y="180.0" text-anchor="middle" font-size="11" fill="#cbd5e1">0.40</text>
  <rect x="254" y="154" width="44" height="44" rx="3" fill="#111826" stroke="#26303f" stroke-width="1"/>
  <text x="276.0" y="180.0" text-anchor="middle" font-size="11" fill="#cbd5e1">0.37</text>
  <rect x="300" y="154" width="44" height="44" rx="3" fill="#111826" stroke="#26303f" stroke-width="1"/>
  <text x="322.0" y="180.0" text-anchor="middle" font-size="11" fill="#cbd5e1">0.39</text>
  <rect x="346" y="154" width="44" height="44" rx="3" fill="#111826" stroke="#26303f" stroke-width="1"/>
  <text x="368.0" y="180.0" text-anchor="middle" font-size="11" fill="#cbd5e1">0.36</text>
  <rect x="392" y="154" width="44" height="44" rx="3" fill="#111826" stroke="#26303f" stroke-width="1"/>
  <text x="414.0" y="180.0" text-anchor="middle" font-size="11" fill="#cbd5e1">0.38</text>
  <rect x="438" y="154" width="44" height="44" rx="3" fill="#111826" stroke="#26303f" stroke-width="1"/>
  <text x="460.0" y="180.0" text-anchor="middle" font-size="11" fill="#cbd5e1">0.40</text>
  <rect x="484" y="154" width="44" height="44" rx="3" fill="#111826" stroke="#26303f" stroke-width="1"/>
  <text x="506.0" y="180.0" text-anchor="middle" font-size="11" fill="#cbd5e1">0.37</text>
  <rect x="530" y="154" width="44" height="44" rx="3" fill="#111826" stroke="#26303f" stroke-width="1"/>
  <text x="552.0" y="180.0" text-anchor="middle" font-size="11" fill="#cbd5e1">0.39</text>
  <rect x="70" y="200" width="44" height="44" rx="3" fill="#111826" stroke="#26303f" stroke-width="1"/>
  <text x="92.0" y="226.0" text-anchor="middle" font-size="11" fill="#cbd5e1">0.37</text>
  <rect x="116" y="200" width="44" height="44" rx="3" fill="#111826" stroke="#26303f" stroke-width="1"/>
  <text x="138.0" y="226.0" text-anchor="middle" font-size="11" fill="#cbd5e1">0.39</text>
  <rect x="162" y="200" width="44" height="44" rx="3" fill="#111826" stroke="#26303f" stroke-width="1"/>
  <text x="184.0" y="226.0" text-anchor="middle" font-size="11" fill="#cbd5e1">0.36</text>
  <rect x="208" y="200" width="44" height="44" rx="3" fill="#111826" stroke="#26303f" stroke-width="1"/>
  <text x="230.0" y="226.0" text-anchor="middle" font-size="11" fill="#cbd5e1">0.38</text>
  <rect x="254" y="200" width="44" height="44" rx="3" fill="#14233a" stroke="#3b5170" stroke-width="1"/>
  <text x="276.0" y="226.0" text-anchor="middle" font-size="11" fill="#cbd5e1">0.50</text>
  <rect x="300" y="200" width="44" height="44" rx="3" fill="#14233a" stroke="#3b5170" stroke-width="1"/>
  <text x="322.0" y="226.0" text-anchor="middle" font-size="11" fill="#cbd5e1">0.50</text>
  <rect x="346" y="200" width="44" height="44" rx="3" fill="#3a1420" stroke="#f87171" stroke-width="1"/>
  <text x="368.0" y="226.0" text-anchor="middle" font-size="11" fill="#cbd5e1">0.41</text>
  <rect x="392" y="200" width="44" height="44" rx="3" fill="#14233a" stroke="#3b5170" stroke-width="1"/>
  <text x="414.0" y="226.0" text-anchor="middle" font-size="11" fill="#cbd5e1">0.50</text>
  <rect x="438" y="200" width="44" height="44" rx="3" fill="#111826" stroke="#26303f" stroke-width="1"/>
  <text x="460.0" y="226.0" text-anchor="middle" font-size="11" fill="#cbd5e1">0.38</text>
  <rect x="484" y="200" width="44" height="44" rx="3" fill="#111826" stroke="#26303f" stroke-width="1"/>
  <text x="506.0" y="226.0" text-anchor="middle" font-size="11" fill="#cbd5e1">0.40</text>
  <rect x="530" y="200" width="44" height="44" rx="3" fill="#111826" stroke="#26303f" stroke-width="1"/>
  <text x="552.0" y="226.0" text-anchor="middle" font-size="11" fill="#cbd5e1">0.37</text>
  <rect x="70" y="246" width="44" height="44" rx="3" fill="#111826" stroke="#26303f" stroke-width="1"/>
  <text x="92.0" y="272.0" text-anchor="middle" font-size="11" fill="#cbd5e1">0.40</text>
  <rect x="116" y="246" width="44" height="44" rx="3" fill="#111826" stroke="#26303f" stroke-width="1"/>
  <text x="138.0" y="272.0" text-anchor="middle" font-size="11" fill="#cbd5e1">0.37</text>
  <rect x="162" y="246" width="44" height="44" rx="3" fill="#111826" stroke="#26303f" stroke-width="1"/>
  <text x="184.0" y="272.0" text-anchor="middle" font-size="11" fill="#cbd5e1">0.39</text>
  <rect x="208" y="246" width="44" height="44" rx="3" fill="#14233a" stroke="#3b5170" stroke-width="1"/>
  <text x="230.0" y="272.0" text-anchor="middle" font-size="11" fill="#cbd5e1">0.50</text>
  <rect x="254" y="246" width="44" height="44" rx="3" fill="#14233a" stroke="#3b5170" stroke-width="1"/>
  <text x="276.0" y="272.0" text-anchor="middle" font-size="11" fill="#cbd5e1">0.50</text>
  <rect x="300" y="246" width="44" height="44" rx="3" fill="#3a1420" stroke="#f87171" stroke-width="1"/>
  <text x="322.0" y="272.0" text-anchor="middle" font-size="11" fill="#cbd5e1">0.41</text>
  <rect x="346" y="246" width="44" height="44" rx="3" fill="#3a1420" stroke="#f87171" stroke-width="1"/>
  <text x="368.0" y="272.0" text-anchor="middle" font-size="11" fill="#cbd5e1">0.41</text>
  <rect x="392" y="246" width="44" height="44" rx="3" fill="#14233a" stroke="#3b5170" stroke-width="1"/>
  <text x="414.0" y="272.0" text-anchor="middle" font-size="11" fill="#cbd5e1">0.50</text>
  <rect x="438" y="246" width="44" height="44" rx="3" fill="#14233a" stroke="#3b5170" stroke-width="1"/>
  <text x="460.0" y="272.0" text-anchor="middle" font-size="11" fill="#cbd5e1">0.50</text>
  <rect x="484" y="246" width="44" height="44" rx="3" fill="#111826" stroke="#26303f" stroke-width="1"/>
  <text x="506.0" y="272.0" text-anchor="middle" font-size="11" fill="#cbd5e1">0.38</text>
  <rect x="530" y="246" width="44" height="44" rx="3" fill="#111826" stroke="#26303f" stroke-width="1"/>
  <text x="552.0" y="272.0" text-anchor="middle" font-size="11" fill="#cbd5e1">0.40</text>
  <rect x="70" y="292" width="44" height="44" rx="3" fill="#111826" stroke="#26303f" stroke-width="1"/>
  <text x="92.0" y="318.0" text-anchor="middle" font-size="11" fill="#cbd5e1">0.38</text>
  <rect x="116" y="292" width="44" height="44" rx="3" fill="#111826" stroke="#26303f" stroke-width="1"/>
  <text x="138.0" y="318.0" text-anchor="middle" font-size="11" fill="#cbd5e1">0.40</text>
  <rect x="162" y="292" width="44" height="44" rx="3" fill="#111826" stroke="#26303f" stroke-width="1"/>
  <text x="184.0" y="318.0" text-anchor="middle" font-size="11" fill="#cbd5e1">0.37</text>
  <rect x="208" y="292" width="44" height="44" rx="3" fill="#14233a" stroke="#3b5170" stroke-width="1"/>
  <text x="230.0" y="318.0" text-anchor="middle" font-size="11" fill="#cbd5e1">0.50</text>
  <rect x="254" y="292" width="44" height="44" rx="3" fill="#14233a" stroke="#3b5170" stroke-width="1"/>
  <text x="276.0" y="318.0" text-anchor="middle" font-size="11" fill="#cbd5e1">0.50</text>
  <rect x="300" y="292" width="44" height="44" rx="3" fill="#3a1420" stroke="#f87171" stroke-width="1"/>
  <text x="322.0" y="318.0" text-anchor="middle" font-size="11" fill="#cbd5e1">0.41</text>
  <rect x="346" y="292" width="44" height="44" rx="3" fill="#3a1420" stroke="#f87171" stroke-width="1"/>
  <text x="368.0" y="318.0" text-anchor="middle" font-size="11" fill="#cbd5e1">0.41</text>
  <rect x="392" y="292" width="44" height="44" rx="3" fill="#14233a" stroke="#3b5170" stroke-width="1"/>
  <text x="414.0" y="318.0" text-anchor="middle" font-size="11" fill="#cbd5e1">0.50</text>
  <rect x="438" y="292" width="44" height="44" rx="3" fill="#14233a" stroke="#3b5170" stroke-width="1"/>
  <text x="460.0" y="318.0" text-anchor="middle" font-size="11" fill="#cbd5e1">0.50</text>
  <rect x="484" y="292" width="44" height="44" rx="3" fill="#111826" stroke="#26303f" stroke-width="1"/>
  <text x="506.0" y="318.0" text-anchor="middle" font-size="11" fill="#cbd5e1">0.36</text>
  <rect x="530" y="292" width="44" height="44" rx="3" fill="#111826" stroke="#26303f" stroke-width="1"/>
  <text x="552.0" y="318.0" text-anchor="middle" font-size="11" fill="#cbd5e1">0.38</text>
  <rect x="70" y="338" width="44" height="44" rx="3" fill="#111826" stroke="#26303f" stroke-width="1"/>
  <text x="92.0" y="364.0" text-anchor="middle" font-size="11" fill="#cbd5e1">0.36</text>
  <rect x="116" y="338" width="44" height="44" rx="3" fill="#111826" stroke="#26303f" stroke-width="1"/>
  <text x="138.0" y="364.0" text-anchor="middle" font-size="11" fill="#cbd5e1">0.38</text>
  <rect x="162" y="338" width="44" height="44" rx="3" fill="#111826" stroke="#26303f" stroke-width="1"/>
  <text x="184.0" y="364.0" text-anchor="middle" font-size="11" fill="#cbd5e1">0.40</text>
  <rect x="208" y="338" width="44" height="44" rx="3" fill="#111826" stroke="#26303f" stroke-width="1"/>
  <text x="230.0" y="364.0" text-anchor="middle" font-size="11" fill="#cbd5e1">0.37</text>
  <rect x="254" y="338" width="44" height="44" rx="3" fill="#14233a" stroke="#3b5170" stroke-width="1"/>
  <text x="276.0" y="364.0" text-anchor="middle" font-size="11" fill="#cbd5e1">0.50</text>
  <rect x="300" y="338" width="44" height="44" rx="3" fill="#14233a" stroke="#3b5170" stroke-width="1"/>
  <text x="322.0" y="364.0" text-anchor="middle" font-size="11" fill="#cbd5e1">0.50</text>
  <rect x="346" y="338" width="44" height="44" rx="3" fill="#14233a" stroke="#3b5170" stroke-width="1"/>
  <text x="368.0" y="364.0" text-anchor="middle" font-size="11" fill="#cbd5e1">0.50</text>
  <rect x="392" y="338" width="44" height="44" rx="3" fill="#14233a" stroke="#3b5170" stroke-width="1"/>
  <text x="414.0" y="364.0" text-anchor="middle" font-size="11" fill="#cbd5e1">0.50</text>
  <rect x="438" y="338" width="44" height="44" rx="3" fill="#111826" stroke="#26303f" stroke-width="1"/>
  <text x="460.0" y="364.0" text-anchor="middle" font-size="11" fill="#cbd5e1">0.37</text>
  <rect x="484" y="338" width="44" height="44" rx="3" fill="#111826" stroke="#26303f" stroke-width="1"/>
  <text x="506.0" y="364.0" text-anchor="middle" font-size="11" fill="#cbd5e1">0.39</text>
  <rect x="530" y="338" width="44" height="44" rx="3" fill="#111826" stroke="#26303f" stroke-width="1"/>
  <text x="552.0" y="364.0" text-anchor="middle" font-size="11" fill="#cbd5e1">0.36</text>
  <rect x="70" y="384" width="44" height="44" rx="3" fill="#111826" stroke="#26303f" stroke-width="1"/>
  <text x="92.0" y="410.0" text-anchor="middle" font-size="11" fill="#cbd5e1">0.39</text>
  <rect x="116" y="384" width="44" height="44" rx="3" fill="#111826" stroke="#26303f" stroke-width="1"/>
  <text x="138.0" y="410.0" text-anchor="middle" font-size="11" fill="#cbd5e1">0.36</text>
  <rect x="162" y="384" width="44" height="44" rx="3" fill="#111826" stroke="#26303f" stroke-width="1"/>
  <text x="184.0" y="410.0" text-anchor="middle" font-size="11" fill="#cbd5e1">0.38</text>
  <rect x="208" y="384" width="44" height="44" rx="3" fill="#111826" stroke="#26303f" stroke-width="1"/>
  <text x="230.0" y="410.0" text-anchor="middle" font-size="11" fill="#cbd5e1">0.40</text>
  <rect x="254" y="384" width="44" height="44" rx="3" fill="#111826" stroke="#26303f" stroke-width="1"/>
  <text x="276.0" y="410.0" text-anchor="middle" font-size="11" fill="#cbd5e1">0.37</text>
  <rect x="300" y="384" width="44" height="44" rx="3" fill="#111826" stroke="#26303f" stroke-width="1"/>
  <text x="322.0" y="410.0" text-anchor="middle" font-size="11" fill="#cbd5e1">0.39</text>
  <rect x="346" y="384" width="44" height="44" rx="3" fill="#111826" stroke="#26303f" stroke-width="1"/>
  <text x="368.0" y="410.0" text-anchor="middle" font-size="11" fill="#cbd5e1">0.36</text>
  <rect x="392" y="384" width="44" height="44" rx="3" fill="#111826" stroke="#26303f" stroke-width="1"/>
  <text x="414.0" y="410.0" text-anchor="middle" font-size="11" fill="#cbd5e1">0.38</text>
  <rect x="438" y="384" width="44" height="44" rx="3" fill="#111826" stroke="#26303f" stroke-width="1"/>
  <text x="460.0" y="410.0" text-anchor="middle" font-size="11" fill="#cbd5e1">0.40</text>
  <rect x="484" y="384" width="44" height="44" rx="3" fill="#111826" stroke="#26303f" stroke-width="1"/>
  <text x="506.0" y="410.0" text-anchor="middle" font-size="11" fill="#cbd5e1">0.37</text>
  <rect x="530" y="384" width="44" height="44" rx="3" fill="#111826" stroke="#26303f" stroke-width="1"/>
  <text x="552.0" y="410.0" text-anchor="middle" font-size="11" fill="#cbd5e1">0.39</text>
  <rect x="70" y="430" width="44" height="44" rx="3" fill="#111826" stroke="#26303f" stroke-width="1"/>
  <text x="92.0" y="456.0" text-anchor="middle" font-size="11" fill="#cbd5e1">0.37</text>
  <rect x="116" y="430" width="44" height="44" rx="3" fill="#111826" stroke="#26303f" stroke-width="1"/>
  <text x="138.0" y="456.0" text-anchor="middle" font-size="11" fill="#cbd5e1">0.39</text>
  <rect x="162" y="430" width="44" height="44" rx="3" fill="#111826" stroke="#26303f" stroke-width="1"/>
  <text x="184.0" y="456.0" text-anchor="middle" font-size="11" fill="#cbd5e1">0.36</text>
  <rect x="208" y="430" width="44" height="44" rx="3" fill="#111826" stroke="#26303f" stroke-width="1"/>
  <text x="230.0" y="456.0" text-anchor="middle" font-size="11" fill="#cbd5e1">0.38</text>
  <rect x="254" y="430" width="44" height="44" rx="3" fill="#111826" stroke="#26303f" stroke-width="1"/>
  <text x="276.0" y="456.0" text-anchor="middle" font-size="11" fill="#cbd5e1">0.40</text>
  <rect x="300" y="430" width="44" height="44" rx="3" fill="#111826" stroke="#26303f" stroke-width="1"/>
  <text x="322.0" y="456.0" text-anchor="middle" font-size="11" fill="#cbd5e1">0.37</text>
  <rect x="346" y="430" width="44" height="44" rx="3" fill="#111826" stroke="#26303f" stroke-width="1"/>
  <text x="368.0" y="456.0" text-anchor="middle" font-size="11" fill="#cbd5e1">0.39</text>
  <rect x="392" y="430" width="44" height="44" rx="3" fill="#111826" stroke="#26303f" stroke-width="1"/>
  <text x="414.0" y="456.0" text-anchor="middle" font-size="11" fill="#cbd5e1">0.36</text>
  <rect x="438" y="430" width="44" height="44" rx="3" fill="#111826" stroke="#26303f" stroke-width="1"/>
  <text x="460.0" y="456.0" text-anchor="middle" font-size="11" fill="#cbd5e1">0.38</text>
  <rect x="484" y="430" width="44" height="44" rx="3" fill="#111826" stroke="#26303f" stroke-width="1"/>
  <text x="506.0" y="456.0" text-anchor="middle" font-size="11" fill="#cbd5e1">0.40</text>
  <rect x="530" y="430" width="44" height="44" rx="3" fill="#111826" stroke="#26303f" stroke-width="1"/>
  <text x="552.0" y="456.0" text-anchor="middle" font-size="11" fill="#cbd5e1">0.37</text>
  <text x="380.0" y="504" text-anchor="middle" font-size="11.5" fill="#cbd5e1">the tumor is only a handful of voxels, and its value barely differs from the pancreas around it</text>
  <text x="380.0" y="522" text-anchor="middle" font-size="11" fill="#94a3b8">and this is already downsampled from a finer original scan, so detail was averaged away before the model ever looked</text>
</svg>